G04 ================== begin FILE IDENTIFICATION RECORD ==================*
G04 Layout Name:  C:/Users/patri/OneDrive/桌面/1116PCB/quadcopter OrCad2/PCB1.brd*
G04 Film Name:    BOTTOM*
G04 File Format:  Gerber RS274X*
G04 File Origin:  Cadence Allegro 17.4-S021*
G04 Origin Date:  Tue Nov 16 20:27:00 2021*
G04 *
G04 Layer:  ETCH/BOTTOM*
G04 Layer:  PIN/BOTTOM*
G04 Layer:  VIA CLASS/BOTTOM*
G04 *
G04 Offset:    (0.0000 0.0000)*
G04 Mirror:    No*
G04 Mode:      Positive*
G04 Rotation:  0*
G04 FullContactRelief:  No*
G04 UndefLineWidth:     0.0000*
G04 ================== end FILE IDENTIFICATION RECORD ====================*
%FSLAX35Y35*MOMM*%
%IR0*IPPOS*OFA0.00000B0.00000*MIA0B0*SFA1.00000B1.00000*%
%ADD15C,.6501*%
%ADD13C,.6096*%
%ADD12O,2.X1.*%
%ADD14O,2.1X1.05*%
%ADD10C,2.*%
%ADD11C,3.*%
%ADD16C,.5*%
%ADD17C,.6*%
%ADD18C,.7*%
%ADD19C,.8*%
%ADD20C,1.*%
%ADD21C,1.5*%
%ADD23C,2.4544*%
%ADD22C,3.4544*%
G75*
%LPD*%
G75*
G36*
G01X25362280Y15400000D02*
G03X25425000Y15337280I62720J0D01*
G03X25452820Y15343790I-5J62719D01*
G02X25525000Y15298980I22180J-44812D01*
G01Y9525000D01*
X17525000D01*
Y17525000D01*
X18036800D01*
G02X18072160Y17439650I2J-49999D01*
G01X17891450Y17258930D01*
X17877290Y17262980D01*
G03X17843520Y17267720I-33778J-117982D01*
G01X17843500D01*
G03X17966220Y17145000I0J-122720D01*
G01Y17145020D01*
G03X17962020Y17176840I-122721J-11D01*
G01X17958270Y17190790D01*
X18169770Y17402280D01*
X18764540D01*
G02X18809250Y17329910I-6J-50000D01*
G03X18796280Y17275000I109749J-54910D01*
G03X18919000Y17152280I122720J0D01*
G03X19009240Y17191830I0J122724D01*
G02X19082760I36760J-33890D01*
G03X19263240I90240J83174D01*
G02X19336760I36760J-33890D01*
G03X19517240I90240J83174D01*
G02X19590760I36760J-33890D01*
G03X19681000Y17152280I90240J83174D01*
G03X19803720Y17275000I0J122720D01*
G03X19778700Y17349260I-122730J-6D01*
G01X19769910Y17360830D01*
X19787580Y17402280D01*
X19826010D01*
X19830440Y17400530D01*
G03X19850000Y17396800I19569J49468D01*
G03X19903200Y17450000I0J53200D01*
G01Y17450040D01*
G03X19901620Y17462890I-53203J-19D01*
G02X19950130Y17525000I48509J12112D01*
G01X21140590D01*
G02X21175950Y17439650I0J-50000D01*
G01X21068150Y17331850D01*
G03X21049780Y17287500I44351J-44350D01*
G03X21112500Y17224780I62720J0D01*
G03X21156850Y17243150I0J62721D01*
G01X21300980Y17387280D01*
X25249020D01*
X25262400Y17373900D01*
G02X25244730Y17331220I-17675J-17680D01*
G01X25209500D01*
G03X25103390Y17270160I0J-122729D01*
G01X25096160Y17257720D01*
X24325000D01*
G03Y17142280I0J-57720D01*
G01X25106180D01*
G03X25209500Y17085780I103320J66219D01*
G01X25209510D01*
G03X25282530Y17109870I-3J122722D01*
G02X25362280Y17069690I29752J-40183D01*
G01Y15400000D01*
G37*
%LPC*%
G75*
G36*
G01X18112690Y14928440D02*
G02X18090280Y14982000I52799J53560D01*
G02X18165500Y15057220I75220J0D01*
G01X18270500D01*
G02X18345720Y14982000I0J-75220D01*
G02X18271230Y14906780I-75224J0D01*
G03X18222440Y14848340I488J-49994D01*
G02X18223230Y14839000I-54443J-9308D01*
G02X18112770I-55230J0D01*
G02X18120540Y14867250I55240J0D01*
G03X18112690Y14928440I-42957J25588D01*
G37*
G36*
G01X18120540Y14232750D02*
G02X18112770Y14261000I47470J28250D01*
G02X18223230I55230J0D01*
G02X18222440Y14251660I-55233J-32D01*
G03X18271230Y14193220I49278J-8446D01*
G02X18345720Y14118000I-734J-75220D01*
G02X18270500Y14042780I-75220J0D01*
G01X18165500D01*
G02X18090280Y14118000I0J75220D01*
G02X18112690Y14171560I75209J0D01*
G03X18120540Y14232750I-35107J35602D01*
G37*
G36*
G01X17750000Y15054720D02*
X17850000D01*
G02Y14909280I0J-72720D01*
G01X17750000D01*
G02Y15054720I0J72720D01*
G37*
G36*
G01X17850000Y14045280D02*
X17750000D01*
G02Y14190720I0J72720D01*
G01X17850000D01*
G02Y14045280I0J-72720D01*
G37*
G36*
G01X25062830Y14641760D02*
G02X25023280Y14732000I83174J90240D01*
G02X25268720I122720J0D01*
G02X25229170Y14641760I-122724J0D01*
G03Y14568240I33890J-36760D01*
G02Y14387760I-83174J-90240D01*
G03Y14314240I33890J-36760D01*
G02X25268720Y14224000I-83174J-90240D01*
G02X25023280I-122720J0D01*
G02X25062830Y14314240I122724J0D01*
G03Y14387760I-33890J36760D01*
G02Y14568240I83174J90240D01*
G03Y14641760I-33890J36760D01*
G37*
G36*
G01Y12863760D02*
G02X25023280Y12954000I83174J90240D01*
G02X25268720I122720J0D01*
G02X25229170Y12863760I-122724J0D01*
G03Y12790240I33890J-36760D01*
G02Y12609760I-83174J-90240D01*
G03Y12536240I33890J-36760D01*
G02X25268720Y12446000I-83174J-90240D01*
G02X25023280I-122720J0D01*
G02X25062830Y12536240I122724J0D01*
G03Y12609760I-33890J36760D01*
G02Y12790240I83174J90240D01*
G03Y12863760I-33890J36760D01*
G37*
G36*
G01Y11593760D02*
G02X25023280Y11684000I83174J90240D01*
G02X25268720I122720J0D01*
G02X25229170Y11593760I-122724J0D01*
G03Y11520240I33890J-36760D01*
G02Y11339760I-83174J-90240D01*
G03Y11266240I33890J-36760D01*
G02X25268720Y11176000I-83174J-90240D01*
G02X25023280I-122720J0D01*
G02X25062830Y11266240I122724J0D01*
G03Y11339760I-33890J36760D01*
G02Y11520240I83174J90240D01*
G03Y11593760I-33890J36760D01*
G37*
G36*
G01X19302280Y15155230D02*
X18995720Y15461790D01*
X18991350Y15463680D01*
G02X18959300Y15512500I21157J48820D01*
G02X19012500Y15565700I53200J0D01*
G02X19061320Y15533650I0J-53207D01*
G01X19063210Y15529280D01*
X19383740Y15208740D01*
G02X19397720Y15175000I-33738J-33745D01*
G01Y14219770D01*
X19694770Y13922720D01*
X20101010D01*
X20105440Y13924470D01*
G02X20125000Y13928200I19569J-49468D01*
G02Y13821800I0J-53200D01*
G02X20105440Y13825530I9J53198D01*
G01X20101010Y13827280D01*
X19675000D01*
G02X19641260Y13841260I5J47718D01*
G01X19316260Y14166260D01*
G02X19302280Y14200000I33738J33745D01*
G01Y15155230D01*
G37*
G36*
G01X20430230Y15352280D02*
X19598990D01*
X19594560Y15350530D01*
G02X19575000Y15346800I-19569J49468D01*
G02Y15453200I0J53200D01*
G02X19594560Y15449470I-9J-53198D01*
G01X19598990Y15447720D01*
X20450000D01*
G02X20483740Y15433740I-5J-47718D01*
G01X20591780Y15325710D01*
X20596150Y15323820D01*
G02X20628200Y15275000I-21157J-48820D01*
G02X20575000Y15221800I-53200J0D01*
G02X20526180Y15253850I0J53207D01*
G01X20524290Y15258220D01*
X20430230Y15352280D01*
G37*
G36*
G01X20627280Y13930230D02*
X19933220Y14624290D01*
X19928850Y14626180D01*
G02X19896800Y14675000I21157J48820D01*
G02X19950000Y14728200I53200J0D01*
G02X19998820Y14696150I0J-53207D01*
G01X20000710Y14691780D01*
X20708740Y13983740D01*
G02X20722720Y13950000I-33738J-33745D01*
G01Y13848990D01*
X20724470Y13844560D01*
G02X20728200Y13825000I-49468J-19569D01*
G02X20621800I-53200J0D01*
G02X20625530Y13844560I53198J-9D01*
G01X20627280Y13848990D01*
Y13930230D01*
G37*
G36*
G01X21973580Y12998580D02*
G02X21952280Y13050000I51416J51420D01*
G01Y13725000D01*
G02X22097720I72720J0D01*
G01Y13080120D01*
X22551420Y12626420D01*
G02X22572720Y12575000I-51416J-51420D01*
G01Y12150000D01*
G02X22427280I-72720J0D01*
G01Y12544880D01*
X21973580Y12998580D01*
G37*
G36*
G01X20627280Y12698990D02*
Y12926010D01*
X20625530Y12930440D01*
G02X20621800Y12950000I49468J19569D01*
G02X20728200I53200J0D01*
G02X20724470Y12930440I-53198J9D01*
G01X20722720Y12926010D01*
Y12698990D01*
X20724470Y12694560D01*
G02X20728200Y12675000I-49468J-19569D01*
G02X20621800I-53200J0D01*
G02X20625530Y12694560I53198J-9D01*
G01X20627280Y12698990D01*
G37*
G36*
G01X20952280Y13150000D02*
Y13526010D01*
X20950530Y13530440D01*
G02X20946800Y13550000I49468J19569D01*
G02X21053200I53200J0D01*
G02X21049470Y13530440I-53198J9D01*
G01X21047720Y13526010D01*
Y13169770D01*
X21194770Y13022720D01*
X21475000D01*
G02X21508740Y13008740I-5J-47718D01*
G01X21633740Y12883740D01*
G02X21647720Y12850000I-33738J-33745D01*
G01Y12548990D01*
X21649470Y12544560D01*
G02X21653200Y12525000I-49468J-19569D01*
G02X21546800I-53200J0D01*
G02X21550530Y12544560I53198J-9D01*
G01X21552280Y12548990D01*
Y12830230D01*
X21455230Y12927280D01*
X21175000D01*
G02X21141260Y12941260I5J47718D01*
G01X20966260Y13116260D01*
G02X20952280Y13150000I33738J33745D01*
G37*
G36*
G01X20434520Y17072720D02*
X20605900Y17244100D01*
G02X20675000Y17272720I69100J-69107D01*
G02X20772720Y17175000I0J-97720D01*
G02X20744100Y17105900I-97727J0D01*
G01X20544100Y16905900D01*
G02X20475000Y16877280I-69100J69107D01*
G01X18776480D01*
X18157870Y16258670D01*
X18156390Y16251210D01*
G02X18119170Y16184760I-120393J23786D01*
G03Y16111240I33890J-36760D01*
G02Y15930760I-83174J-90240D01*
G03Y15857240I33890J-36760D01*
G02X18158720Y15767000I-83174J-90240D01*
G02X18036000Y15644280I-122720J0D01*
G02X17945760Y15683830I0J122724D01*
G03X17872240I-36760J-33890D01*
G02X17782000Y15644280I-90240J83174D01*
G02X17659280Y15767000I0J122720D01*
G02X17698830Y15857240I122724J0D01*
G03Y15930760I-33890J36760D01*
G02Y16111240I83174J90240D01*
G03Y16184760I-33890J36760D01*
G02X17659280Y16275000I83174J90240D01*
G02X17782000Y16397720I122720J0D01*
G02X17880850Y16347720I0J-122713D01*
G01X17937150D01*
G02X18012210Y16395390I98851J-72720D01*
G01X18019670Y16396870D01*
X18666900Y17044100D01*
G02X18736000Y17072720I69100J-69107D01*
G01X20434520D01*
G37*
G36*
G01X20280900Y12362720D02*
G02X20252280Y12431820I69107J69100D01*
G01Y13175000D01*
G02X20447720I97720J0D01*
G01Y12472300D01*
X20781310Y12138710D01*
X20795760Y12143240D01*
G02X20825000Y12147720I29249J-93239D01*
G01X21225000D01*
G02Y11952280I0J-97720D01*
G01X20825000D01*
G02X20778410Y11964100I0J97730D01*
G02X20731820Y11952280I-46590J85910D01*
G02X20662720Y11980900I0J97727D01*
G01X20280900Y12362720D01*
G37*
G36*
G01X17941830Y12792240D02*
G03Y12865760I-33890J36760D01*
G02X17902280Y12956000I83174J90240D01*
G02X18025000Y13078720I122720J0D01*
G02X18106530Y13047720I0J-122712D01*
G01X18400000D01*
G02X18469100Y13019100I0J-97727D01*
G01X19144100Y12344100D01*
G02X19172720Y12275000I-69107J-69100D01*
G02X19075000Y12177280I-97720J0D01*
G02X19005900Y12205900I0J97727D01*
G01X18359520Y12852280D01*
X18165630D01*
G03X18124920Y12773250I-2J-49999D01*
G02X18147720Y12702000I-99928J-71250D01*
G02X18108170Y12611760I-122724J0D01*
G03Y12538240I33890J-36760D01*
G02Y12357760I-83174J-90240D01*
G03Y12284240I33890J-36760D01*
G02X18147720Y12194000I-83174J-90240D01*
G02X17902280I-122720J0D01*
G02X17941830Y12284240I122724J0D01*
G03Y12357760I-33890J36760D01*
G02Y12538240I83174J90240D01*
G03Y12611760I-33890J36760D01*
G02Y12792240I83174J90240D01*
G37*
G36*
G01X24220240Y9822830D02*
G02X24130000Y9783280I-90240J83174D01*
G02Y10028720I0J122720D01*
G02X24220240Y9989170I0J-122724D01*
G03X24293760I36760J33890D01*
G02X24384000Y10028720I90240J-83174D01*
G02Y9783280I0J-122720D01*
G02X24293760Y9822830I0J122724D01*
G03X24220240I-36760J-33890D01*
G37*
G54D23*
X25209500Y9842500D03*
X17843500D03*
G54D22*
X21526490Y16825500D03*
X24826490Y13525500D03*
X18226500D03*
X21526490Y10225500D03*
%LPD*%
G75*
G54D10*
X17843500Y9842500D03*
X18025000Y12194000D03*
Y12448000D03*
Y12702000D03*
Y12956000D03*
X18036000Y16275000D03*
Y16021000D03*
Y15767000D03*
X17782000D03*
Y16021000D03*
Y16275000D03*
X17843500Y17145000D03*
X18919000Y17275000D03*
X19173000D03*
X19427000D03*
X19681000D03*
X24130000Y9906000D03*
X24384000D03*
X25209500Y9842500D03*
X25146000Y11176000D03*
Y11430000D03*
Y11684000D03*
Y12446000D03*
Y12700000D03*
Y12954000D03*
Y14224000D03*
Y14478000D03*
Y14732000D03*
X25209500Y17208500D03*
G54D20*
G01X18025000Y12950000D02*
Y12956000D01*
G01X18036000Y16275000D02*
X17782000D01*
G01D02*
X17775000D01*
G01X20731820Y12050000D02*
X20825000D01*
G01X22500000Y12300000D02*
Y12575000D01*
X22025000Y13050000D01*
Y13250000D01*
G01X22500000Y12300000D02*
Y12150000D01*
G01X22025000Y13250000D02*
Y13725000D01*
G54D11*
X18226500Y13525500D03*
X21526490Y10225500D03*
Y16825500D03*
X24826490Y13525500D03*
G54D21*
G01X18800000Y12550000D02*
X18400000Y12950000D01*
X18025000D01*
G01X18036000Y16275000D02*
X18736000Y16975000D01*
X20475000D01*
G01X18800000Y12550000D02*
X18950000Y12400000D01*
G01D02*
X19075000Y12275000D01*
G01X20350000Y12975000D02*
Y12431820D01*
X20731820Y12050000D01*
G01X20350000Y12975000D02*
Y13175000D01*
G01X20475000Y16975000D02*
X20575000Y17075000D01*
G01D02*
X20675000Y17175000D01*
G01X20825000Y12050000D02*
X21029500D01*
G01D02*
X21225000D01*
G54D12*
X17800000Y14118000D03*
Y14982000D03*
G54D13*
X18231000Y12194000D03*
X18450000Y14175000D03*
X18575000Y14125000D03*
X18425000Y14900000D03*
Y15025000D03*
X18950000Y12400000D03*
X19075000Y12275000D03*
X18800000Y12550000D03*
X18895500Y14125000D03*
X19012500Y15512500D03*
X19100000Y15100000D03*
X19950000Y14675000D03*
X19850000Y14500000D03*
X19800000Y15225000D03*
X19575000Y15400000D03*
X19850000Y17450000D03*
X20350000Y12975000D03*
Y13175000D03*
X20125000Y13875000D03*
Y14350000D03*
X20575000Y15275000D03*
X20475000Y16975000D03*
X20575000Y17075000D03*
X20825000Y12050000D03*
X21225000D03*
X21029500D03*
X20675000Y12675000D03*
Y12950000D03*
X21000000Y13550000D03*
X20675000Y13825000D03*
X21125000Y14225000D03*
X20800000Y14775000D03*
X21100000Y14575000D03*
Y14875000D03*
Y15200000D03*
X20664000Y15700000D03*
Y16000000D03*
Y16325000D03*
Y16650000D03*
X20675000Y17175000D03*
X21112500Y17287500D03*
X21600000Y12525000D03*
X21401500Y13225000D03*
X21500500Y13824500D03*
X22500000Y12300000D03*
Y12150000D03*
X22025000Y13725000D03*
Y13250000D03*
X22575000Y9825000D03*
Y10150000D03*
X22632000Y10543000D03*
X22628000Y10797000D03*
X22600000Y11300000D03*
Y11588000D03*
Y11842000D03*
X22654000Y12221000D03*
X23075000Y12975000D03*
X23134000Y13991000D03*
X23525000Y10540500D03*
X23400000D03*
X23650000D03*
X24325000Y17200000D03*
X24770000Y16480000D03*
X25425000Y15400000D03*
G54D14*
X18218000Y14118000D03*
Y14982000D03*
G54D15*
X18168000Y14261000D03*
Y14839000D03*
G54D16*
G01X19850000Y17450000D02*
X18150000D01*
X17850000Y17150000D01*
X17843500Y17145000D01*
G01X19012500Y15512500D02*
X19350000Y15175000D01*
Y14200000D01*
X19675000Y13875000D01*
X20125000D01*
G01X20675000Y13825000D02*
Y13950000D01*
X19950000Y14675000D01*
G01X19575000Y15400000D02*
X20450000D01*
X20575000Y15275000D01*
G01X20675000Y12675000D02*
Y12950000D01*
G01X21600000Y12525000D02*
Y12850000D01*
X21475000Y12975000D01*
X21175000D01*
X21000000Y13150000D01*
Y13550000D01*
G54D17*
G01X18025000Y12046280D02*
Y12194000D01*
G01X17877280D02*
X18025000D01*
G01D02*
X18172720D01*
G01X17782000Y15619280D02*
Y15767000D01*
G01X18036000Y15619280D02*
Y15767000D01*
G01X17634280D02*
X17782000D01*
G01X18036000D02*
X18183720D01*
G01X24384000Y9758280D02*
Y9906000D01*
G01D02*
Y10053720D01*
G01Y9906000D02*
X24531720D01*
G01X25146000Y11028280D02*
Y11176000D01*
G01X24998280D02*
X25146000D01*
G01D02*
X25293720D01*
G01X25146000Y11684000D02*
Y11831720D01*
G01X24998280Y11684000D02*
X25146000D01*
G01D02*
X25293720D01*
G01X24998280Y11430000D02*
X25146000D01*
G01D02*
X25293720D01*
G54D18*
G01X24325000Y17200000D02*
X25209500D01*
G01D02*
X25250000D01*
G01X25209500Y17208500D02*
Y17200000D01*
G54D19*
G01X21112500Y17287500D02*
X21275000Y17450000D01*
X25275000D01*
X25425000Y17300000D01*
Y15400000D01*
M02*
