G04 ================== begin FILE IDENTIFICATION RECORD ==================*
G04 Layout Name:  C:/Users/patri/OneDrive/桌面/1116PCB/quadcopter OrCad2/PCB1.brd*
G04 Film Name:    SOLDERMASK_BOTTOM*
G04 File Format:  Gerber RS274X*
G04 File Origin:  Cadence Allegro 17.4-S021*
G04 Origin Date:  Tue Nov 16 21:18:41 2021*
G04 *
G04 Layer:  VIA CLASS/SOLDERMASK_BOTTOM*
G04 Layer:  PIN/SOLDERMASK_BOTTOM*
G04 Layer:  PACKAGE GEOMETRY/SOLDERMASK_BOTTOM*
G04 Layer:  DRC ERROR CLASS/SOLDERMASK_BOTTOM*
G04 Layer:  BOARD GEOMETRY/SOLDERMASK_BOTTOM*
G04 *
G04 Offset:    (0.0000 0.0000)*
G04 Mirror:    No*
G04 Mode:      Positive*
G04 Rotation:  0*
G04 FullContactRelief:  No*
G04 UndefLineWidth:     0.0000*
G04 ================== end FILE IDENTIFICATION RECORD ====================*
%FSLAX35Y35*MOMM*%
%IR0*IPPOS*OFA0.00000B0.00000*MIA0B0*SFA1.00000B1.00000*%
%ADD14C,.6501*%
%ADD11O,2.X1.*%
%ADD13O,2.1X1.05*%
%ADD10C,2.2*%
%ADD12C,1.1176*%
%LPD*%
G75*
G54D10*
X318500Y-7682500D03*
X500000Y-5331000D03*
Y-5077000D03*
Y-4823000D03*
Y-4569000D03*
X511000Y-1250000D03*
Y-1504000D03*
Y-1758000D03*
X257000D03*
Y-1504000D03*
Y-1250000D03*
X318500Y-380000D03*
X1394000Y-250000D03*
X1648000D03*
X1902000D03*
X2156000D03*
X6605000Y-7619000D03*
X6859000D03*
X7684500Y-7682500D03*
X7621000Y-6349000D03*
Y-6095000D03*
Y-5841000D03*
Y-5079000D03*
Y-4825000D03*
Y-4571000D03*
Y-3301000D03*
Y-3047000D03*
Y-2793000D03*
X7684500Y-316500D03*
G54D11*
X275000Y-3407000D03*
Y-2543000D03*
G54D12*
X706000Y-5331000D03*
X1050000Y-3400000D03*
X925000Y-3350000D03*
X900000Y-2500000D03*
Y-2625000D03*
X1425000Y-5125000D03*
X1550000Y-5250000D03*
X1275000Y-4975000D03*
X1370500Y-3400000D03*
X1487500Y-2012500D03*
X1575000Y-2425000D03*
X2425000Y-2850000D03*
X2325000Y-3025000D03*
X2275000Y-2300000D03*
X2050000Y-2125000D03*
X2325000Y-75000D03*
X2825000Y-4550000D03*
Y-4350000D03*
X2600000Y-3650000D03*
Y-3175000D03*
X3050000Y-2250000D03*
X2950000Y-550000D03*
X3050000Y-450000D03*
X3300000Y-5475000D03*
X3700000D03*
X3504500D03*
X3150000Y-4850000D03*
Y-4575000D03*
X3475000Y-3975000D03*
X3150000Y-3700000D03*
X3600000Y-3300000D03*
X3275000Y-2750000D03*
X3575000Y-2950000D03*
Y-2650000D03*
Y-2325000D03*
X3139000Y-1825000D03*
Y-1525000D03*
Y-1200000D03*
Y-875000D03*
X3150000Y-350000D03*
X3587500Y-237500D03*
X4075000Y-5000000D03*
X3876500Y-4300000D03*
X3975500Y-3700500D03*
X4975000Y-5225000D03*
Y-5375000D03*
X4500000Y-3800000D03*
Y-4275000D03*
X5050000Y-7700000D03*
Y-7375000D03*
X5107000Y-6982000D03*
X5103000Y-6728000D03*
X5075000Y-6225000D03*
Y-5937000D03*
Y-5683000D03*
X5129000Y-5304000D03*
X5550000Y-4550000D03*
X5609000Y-3534000D03*
X6125000Y-6984500D03*
X5875000D03*
X6000000D03*
X6800000Y-325000D03*
X7245000Y-1045000D03*
X7900000Y-2125000D03*
G54D13*
X693000Y-3407000D03*
Y-2543000D03*
G54D14*
X643000Y-3264000D03*
Y-2686000D03*
M02*
