G04 ================== begin FILE IDENTIFICATION RECORD ==================*
G04 Layout Name:  C:/Users/patri/OneDrive/桌面/1116PCB/quadcopter OrCad2/PCB1.brd*
G04 Film Name:    TOP*
G04 File Format:  Gerber RS274X*
G04 File Origin:  Cadence Allegro 17.4-S021*
G04 Origin Date:  Tue Nov 16 21:22:37 2021*
G04 *
G04 Layer:  ETCH/TOP*
G04 Layer:  PIN/TOP*
G04 Layer:  VIA CLASS/TOP*
G04 *
G04 Offset:    (0.0000 0.0000)*
G04 Mirror:    No*
G04 Mode:      Positive*
G04 Rotation:  0*
G04 FullContactRelief:  No*
G04 UndefLineWidth:     0.0000*
G04 ================== end FILE IDENTIFICATION RECORD ====================*
%FSLAX35Y35*MOMM*%
%IR0*IPPOS*OFA0.00000B0.00000*MIA0B0*SFA1.00000B1.00000*%
%ADD19R,1.15X.3*%
%ADD16R,1.15X.6*%
%ADD28R,1.38X.92*%
%ADD13R,.92X1.38*%
%ADD17C,.6501*%
%ADD14C,.6096*%
%AMMACRO31*
4,1,40,1.522,-.655,
-1.522,-.655,
-1.539124,-.653384,
-1.555708,-.648818,
-1.571247,-.641443,
-1.585269,-.631481,
-1.597348,-.619235,
-1.607117,-.605078,
-1.614279,-.58944,
-1.618617,-.572795,
-1.62,-.5568,
-1.62,.5568,
-1.618419,.573928,
-1.613887,.59052,
-1.606543,.606074,
-1.59661,.620116,
-1.584389,.63222,
-1.570252,.642018,
-1.554628,.649212,
-1.537993,.653584,
-1.522,.655,
1.522,.655,
1.539124,.653384,
1.555708,.648818,
1.571247,.641443,
1.585269,.631481,
1.597348,.619235,
1.607117,.605078,
1.614279,.58944,
1.618617,.572795,
1.62,.5568,
1.62,-.5568,
1.618419,-.573928,
1.613887,-.59052,
1.606543,-.606074,
1.59661,-.620116,
1.584389,-.63222,
1.570252,-.642018,
1.554628,-.649212,
1.537993,-.653584,
1.522,-.655,
0.0*
%
%ADD31MACRO31*%
%AMMACRO18*
4,1,40,.368,-.51,
-.368,-.51,
-.385726,-.508434,
-.40291,-.503814,
-.419031,-.496281,
-.433599,-.486062,
-.446171,-.473469,
-.456366,-.458884,
-.463873,-.44275,
-.468464,-.425558,
-.47,-.408,
-.47,.408,
-.468434,.425726,
-.463814,.44291,
-.456281,.459031,
-.446062,.473599,
-.433469,.486171,
-.418884,.496366,
-.40275,.503873,
-.385558,.508464,
-.368,.51,
.368,.51,
.385726,.508434,
.40291,.503814,
.419031,.496281,
.433599,.486062,
.446171,.473469,
.456366,.458884,
.463873,.44275,
.468464,.425558,
.47,.408,
.47,-.408,
.468434,-.425726,
.463814,-.44291,
.456281,-.459031,
.446062,-.473599,
.433469,-.486171,
.418884,-.496366,
.40275,-.503873,
.385558,-.508464,
.368,-.51,
0.0*
%
%ADD18MACRO18*%
%AMMACRO20*
4,1,40,.1397,.7112,
.1397,-.7112,
.138427,-.723306,
.135072,-.735006,
.129736,-.745947,
.122581,-.755794,
.113825,-.76425,
.103733,-.771056,
.092613,-.776007,
.080802,-.778951,
.0711,-.7798,
-.0711,-.7798,
-.083206,-.778527,
-.094906,-.775172,
-.105847,-.769836,
-.115694,-.762681,
-.12415,-.753925,
-.130956,-.743833,
-.135907,-.732713,
-.138851,-.720902,
-.1397,-.7112,
-.1397,.7112,
-.138427,.723306,
-.135072,.735006,
-.129736,.745947,
-.122581,.755794,
-.113825,.76425,
-.103733,.771056,
-.092613,.776007,
-.080802,.778951,
-.0711,.7798,
.0711,.7798,
.083206,.778527,
.094906,.775172,
.105847,.769836,
.115694,.762681,
.12415,.753925,
.130956,.743833,
.135907,.732713,
.138851,.720902,
.1397,.7112,
0.0*
%
%ADD20MACRO20*%
%ADD12O,2.X1.*%
%AMMACRO24*
4,1,44,-.3812,.175,
.3812,.175,
.38879,.174353,
.396153,.172398,
.403064,.169194,
.409314,.164838,
.414713,.159464,
.419096,.153234,
.422331,.146337,
.424319,.138983,
.425,.131396,
.425,.1312,
.425,-.1312,
.424353,-.13879,
.422398,-.146153,
.419194,-.153064,
.414838,-.159314,
.409464,-.164713,
.403234,-.169096,
.396337,-.172331,
.388983,-.174319,
.381396,-.175,
.3812,-.175,
-.3812,-.175,
-.38879,-.174353,
-.396153,-.172398,
-.403064,-.169194,
-.409314,-.164838,
-.414713,-.159464,
-.419096,-.153234,
-.422331,-.146337,
-.424319,-.138983,
-.425,-.131396,
-.425,-.1312,
-.425,.1312,
-.424353,.13879,
-.422398,.146153,
-.419194,.153064,
-.414838,.159314,
-.409464,.164713,
-.403234,.169096,
-.396337,.172331,
-.388983,.174319,
-.381396,.175,
-.3812,.175,
0.0*
%
%ADD24MACRO24*%
%ADD15O,2.1X1.05*%
%ADD32R,2.1X2.4*%
%ADD27R,1.3X1.9*%
%ADD10C,2.*%
%ADD26R,2.6X2.7*%
%ADD11C,3.*%
%ADD22R,1.15X1.45*%
%ADD23R,.8X.8*%
%ADD29R,2.95X1.95*%
%AMMACRO30*
4,1,40,.3668,-.655,
-.3668,-.655,
-.383873,-.653484,
-.400423,-.649026,
-.415947,-.641762,
-.429975,-.631912,
-.442079,-.619776,
-.451891,-.605723,
-.459114,-.590179,
-.463529,-.573618,
-.465,-.5568,
-.465,.5568,
-.463484,.573873,
-.459026,.590423,
-.451762,.605947,
-.441912,.619975,
-.429776,.632079,
-.415723,.641891,
-.400179,.649114,
-.383618,.653529,
-.3668,.655,
.3668,.655,
.383873,.653484,
.400423,.649026,
.415947,.641762,
.429975,.631912,
.442079,.619776,
.451891,.605723,
.459114,.590179,
.463529,.573618,
.465,.5568,
.465,-.5568,
.463484,-.573873,
.459026,-.590423,
.451762,-.605947,
.441912,-.619975,
.429776,-.632079,
.415723,-.641891,
.400179,-.649114,
.383618,-.653529,
.3668,-.655,
0.0*
%
%ADD30MACRO30*%
%AMMACRO21*
4,1,40,-.7112,.1397,
.7112,.1397,
.723306,.138427,
.735006,.135072,
.745947,.129736,
.755794,.122581,
.76425,.113825,
.771056,.103733,
.776007,.092613,
.778951,.080802,
.7798,.0711,
.7798,-.0711,
.778527,-.083206,
.775172,-.094906,
.769836,-.105847,
.762681,-.115694,
.753925,-.12415,
.743833,-.130956,
.732713,-.135907,
.720902,-.138851,
.7112,-.1397,
-.7112,-.1397,
-.723306,-.138427,
-.735006,-.135072,
-.745947,-.129736,
-.755794,-.122581,
-.76425,-.113825,
-.771056,-.103733,
-.776007,-.092613,
-.778951,-.080802,
-.7798,-.0711,
-.7798,.0711,
-.778527,.083206,
-.775172,.094906,
-.769836,.105847,
-.762681,.115694,
-.753925,.12415,
-.743833,.130956,
-.732713,.135907,
-.720902,.138851,
-.7112,.1397,
0.0*
%
%ADD21MACRO21*%
%AMMACRO25*
4,1,44,.175,.3563,
.175,-.3563,
.174336,-.363889,
.172364,-.371247,
.169144,-.378151,
.164774,-.384391,
.159388,-.389777,
.153147,-.394146,
.146243,-.397365,
.138885,-.399337,
.131296,-.4,
.1312,-.4,
-.1312,-.4,
-.13879,-.399353,
-.146153,-.397398,
-.153064,-.394194,
-.159314,-.389839,
-.164713,-.384464,
-.169096,-.378234,
-.172331,-.371337,
-.174319,-.363983,
-.175,-.356396,
-.175,-.3563,
-.175,.3563,
-.174336,.363889,
-.172364,.371247,
-.169144,.378151,
-.164774,.384391,
-.159388,.389777,
-.153147,.394146,
-.146243,.397365,
-.138885,.399337,
-.131296,.4,
-.1312,.4,
.1312,.4,
.13879,.399353,
.146153,.397398,
.153064,.394194,
.159314,.389839,
.164713,.384464,
.169096,.378234,
.172331,.371337,
.174319,.363983,
.175,.356396,
.175,.3563,
0.0*
%
%ADD25MACRO25*%
%ADD33C,.2*%
%ADD34C,.3*%
%ADD35C,.5*%
%ADD36C,.6*%
%ADD37C,.7*%
%ADD38C,.25*%
%ADD39C,.8*%
%ADD40C,.69*%
%ADD41C,1.*%
%ADD42C,1.5*%
G75*
%LPD*%
G75*
G36*
G01X7075000Y-4950000D02*
Y-6850000D01*
X5950000D01*
Y-4950000D01*
X7075000D01*
G37*
G54D10*
X318500Y-7682500D03*
X500000Y-5331000D03*
Y-5077000D03*
Y-4823000D03*
Y-4569000D03*
X511000Y-1250000D03*
Y-1504000D03*
Y-1758000D03*
X257000D03*
Y-1504000D03*
Y-1250000D03*
X318500Y-380000D03*
X1394000Y-250000D03*
X1648000D03*
X1902000D03*
X2156000D03*
X6605000Y-7619000D03*
X6859000D03*
X7684500Y-7682500D03*
X7621000Y-6349000D03*
Y-6095000D03*
Y-5841000D03*
Y-5079000D03*
Y-4825000D03*
Y-4571000D03*
Y-3301000D03*
Y-3047000D03*
Y-2793000D03*
X7684500Y-316500D03*
G54D11*
X701500Y-3999500D03*
X4001490Y-7299500D03*
Y-699500D03*
X7301490Y-3999500D03*
G54D20*
X2414000Y-3318000D03*
X2364000D03*
X2314000D03*
X2264000D03*
Y-2482000D03*
X2314000D03*
X2364000D03*
X2414000D03*
X2814000Y-3318000D03*
X2764000D03*
X2714000D03*
X2664000D03*
X2614000D03*
X2564000D03*
X2514000D03*
X2464000D03*
Y-2482000D03*
X2514000D03*
X2564000D03*
X2614000D03*
X2664000D03*
X2714000D03*
X2764000D03*
X2814000D03*
G54D21*
X2121000Y-3175000D03*
Y-3125000D03*
Y-3075000D03*
Y-3025000D03*
Y-2975000D03*
Y-2925000D03*
Y-2875000D03*
Y-2825000D03*
Y-2775000D03*
Y-2725000D03*
Y-2675000D03*
Y-2625000D03*
X2957000Y-3175000D03*
Y-2775000D03*
Y-2825000D03*
Y-2875000D03*
Y-2925000D03*
Y-2975000D03*
Y-3025000D03*
Y-3075000D03*
Y-3125000D03*
Y-2625000D03*
Y-2675000D03*
Y-2725000D03*
G54D30*
X6729000Y-6984500D03*
X6500000D03*
X6271000D03*
G54D12*
X275000Y-3407000D03*
Y-2543000D03*
G54D40*
G01X5235000Y-7700000D02*
X5050000D01*
G01X5235000Y-7375000D02*
X5050000D01*
G01X5245000Y-6982000D02*
X5107000D01*
G01X5245000Y-6728000D02*
X5103000D01*
G01X5075000Y-6225000D02*
X5152680D01*
X5157680Y-6220000D01*
X5260000D01*
G01X5245000Y-5937000D02*
X5075000D01*
G01X5245000Y-5683000D02*
X5075000D01*
G01X5245000Y-5304000D02*
X5129000D01*
G01X5420500Y-4550000D02*
X5550000D01*
G01X6125000Y-6984500D02*
X6000000D01*
G01X6271000D02*
X6125000D01*
G01X6000000D02*
X5875000D01*
G54D22*
X2959000Y-1968000D03*
Y-1360000D03*
Y-1664000D03*
Y-1031000D03*
X3710000Y-3300000D03*
Y-2650000D03*
Y-2950000D03*
Y-2325000D03*
X3139000Y-1968000D03*
Y-1360000D03*
Y-1664000D03*
Y-1031000D03*
X3890000Y-3300000D03*
Y-2650000D03*
Y-2950000D03*
Y-2325000D03*
X5415000Y-7700000D03*
X5235000D03*
X5425000Y-6982000D03*
X5245000D03*
X5415000Y-7375000D03*
X5235000D03*
X5425000Y-6728000D03*
X5245000D03*
X5425000Y-5937000D03*
X5245000D03*
Y-5683000D03*
X5425000D03*
Y-5304000D03*
X5245000D03*
Y-4292000D03*
X5425000D03*
X5245000Y-3534000D03*
X5425000D03*
G54D31*
X6500000Y-6315500D03*
G54D13*
X288500Y-2012000D03*
X479500D03*
X470500Y-875000D03*
X279500D03*
X1179500Y-3550000D03*
Y-3225000D03*
X1204500Y-2675000D03*
Y-2425000D03*
X1370500Y-3550000D03*
Y-3225000D03*
X1395500Y-2675000D03*
Y-2425000D03*
X3690500Y-5204000D03*
X4198500D03*
X3881500D03*
X4389500D03*
X5239500Y-6474000D03*
X5430500D03*
Y-5025000D03*
X5239500D03*
X5229500Y-4550000D03*
X5420500D03*
X5229500Y-4800000D03*
X5420500D03*
X5239500Y-3788000D03*
X5430500D03*
G54D41*
G01X5250000Y-7900000D02*
X1175000D01*
X200000Y-6925000D01*
Y-3800000D01*
X450000Y-3550000D01*
X975000D01*
G01X5120000Y-1550000D02*
X3600000D01*
G01X2959000Y-1031000D02*
X2950000Y-1025000D01*
Y-550000D01*
G01X5272000Y-7150000D02*
X4873130D01*
G01X4500000Y-4275000D02*
X4375000Y-4150000D01*
G01X4975000Y-5225000D02*
Y-5375000D01*
G01D02*
X5075000Y-5475000D01*
X5332200D01*
X5425000Y-5567800D01*
Y-5683000D01*
G01X4700000Y-4950000D02*
X4975000Y-5225000D01*
G01X6600000Y-7625000D02*
X6200000D01*
X6125000Y-7700000D01*
X6025000D01*
G01X5750000Y-7300000D02*
X5425000Y-6975000D01*
G01X5600000Y-6350000D02*
Y-6011800D01*
G01X5425000Y-5937000D02*
Y-5683000D01*
G01X5430500Y-3788000D02*
X5750000D01*
G01X5120000Y-1550000D02*
X5245000Y-1675000D01*
Y-3534000D01*
G01X7475000Y-1705000D02*
Y-1700000D01*
X7325000Y-1550000D01*
X5120000D01*
G01X6500000Y-7150000D02*
X6350000Y-7300000D01*
X5750000D01*
G01Y-3788000D02*
Y-7300000D01*
G01X6729000Y-7196000D02*
X6600000Y-7325000D01*
Y-7619000D01*
G01Y-7625000D02*
Y-7825000D01*
X6675000Y-7900000D01*
X7725000D01*
X7925000Y-7700000D01*
Y-4950000D01*
X7825000Y-4850000D01*
X7675000D01*
X7625000Y-4800000D01*
X7621000Y-4825000D01*
G01X6600000Y-7619000D02*
Y-7625000D01*
G01X6605000Y-7619000D02*
X6600000D01*
G01X6271000Y-7003500D02*
Y-6984500D01*
G01X7475000Y-1045000D02*
X7245000D01*
G01X7621000Y-4825000D02*
Y-5079000D01*
G01Y-4825000D02*
Y-4571000D01*
G01Y-3075000D02*
Y-3301000D01*
G01Y-2793000D02*
Y-3047000D01*
G01X7625000Y-3075000D02*
X7621000D01*
G01Y-3047000D02*
Y-3075000D01*
G54D23*
X3711000Y-4950000D03*
X4219000D03*
X3861000D03*
X4369000D03*
X5260000Y-6220000D03*
X5410000D03*
G54D32*
X7475000Y-1705000D03*
Y-1045000D03*
G54D14*
X706000Y-5331000D03*
X1050000Y-3400000D03*
X925000Y-3350000D03*
X900000Y-2500000D03*
Y-2625000D03*
X1425000Y-5125000D03*
X1550000Y-5250000D03*
X1275000Y-4975000D03*
X1370500Y-3400000D03*
X1487500Y-2012500D03*
X1575000Y-2425000D03*
X2425000Y-2850000D03*
X2325000Y-3025000D03*
X2275000Y-2300000D03*
X2050000Y-2125000D03*
X2325000Y-75000D03*
X2825000Y-4550000D03*
Y-4350000D03*
X2600000Y-3650000D03*
Y-3175000D03*
X3050000Y-2250000D03*
X2950000Y-550000D03*
X3050000Y-450000D03*
X3300000Y-5475000D03*
X3700000D03*
X3504500D03*
X3150000Y-4850000D03*
Y-4575000D03*
X3475000Y-3975000D03*
X3150000Y-3700000D03*
X3600000Y-3300000D03*
X3275000Y-2750000D03*
X3575000Y-2950000D03*
Y-2650000D03*
Y-2325000D03*
X3139000Y-1825000D03*
Y-1525000D03*
Y-1200000D03*
Y-875000D03*
X3150000Y-350000D03*
X3587500Y-237500D03*
X4075000Y-5000000D03*
X3876500Y-4300000D03*
X3975500Y-3700500D03*
X4975000Y-5225000D03*
Y-5375000D03*
X4500000Y-3800000D03*
Y-4275000D03*
X5050000Y-7700000D03*
Y-7375000D03*
X5107000Y-6982000D03*
X5103000Y-6728000D03*
X5075000Y-6225000D03*
Y-5937000D03*
Y-5683000D03*
X5129000Y-5304000D03*
X5550000Y-4550000D03*
X5609000Y-3534000D03*
X6125000Y-6984500D03*
X5875000D03*
X6000000D03*
X6800000Y-325000D03*
X7245000Y-1045000D03*
X7900000Y-2125000D03*
G54D42*
G01X1425000Y-5125000D02*
X1275000Y-4975000D01*
G01X3300000Y-5475000D02*
X1775000D01*
X1550000Y-5250000D01*
G01D02*
X1425000Y-5125000D01*
G01X2825000Y-4550000D02*
Y-4350000D01*
G01Y-3475000D02*
Y-4350000D01*
G01X3050000Y-450000D02*
X2950000Y-550000D01*
G01X3150000Y-350000D02*
X3050000Y-450000D01*
G01X7225000Y-3075000D02*
Y-2500000D01*
X7875000Y-1850000D01*
Y-950000D01*
X7025000Y-100000D01*
X3400000D01*
X3150000Y-350000D01*
G01X3700000Y-5475000D02*
X3504500D01*
G01D02*
X3300000D01*
G01X4873130Y-7150000D02*
X4500000Y-6776870D01*
Y-5825000D01*
X4150000Y-5475000D01*
X3700000D01*
G01X5750000Y-3788000D02*
X6512000D01*
X7225000Y-3075000D01*
G01D02*
X7621000D01*
G54D33*
G01X5396800Y-6225000D02*
X5410000Y-6220000D01*
G54D15*
X693000Y-3407000D03*
Y-2543000D03*
G54D24*
X4199000Y-4024500D03*
Y-4074500D03*
Y-4124500D03*
X3804000D03*
Y-4074500D03*
Y-4024500D03*
Y-3974500D03*
Y-3924500D03*
Y-3874500D03*
X4199000D03*
Y-3924500D03*
Y-3974500D03*
G54D34*
G01X750500Y-3295000D02*
X870000D01*
X925000Y-3350000D01*
G01X750500Y-3150000D02*
X850000D01*
G01X1025000Y-2950000D02*
X750500D01*
G01X900000Y-3050000D02*
X750500D01*
G01Y-2900000D02*
X630000D01*
X600000Y-2930000D01*
Y-2974990D01*
X625010Y-3000000D01*
X750500D01*
G01X950000Y-2825000D02*
X875000Y-2900000D01*
X750500D01*
G01Y-3150000D02*
X750000D01*
G01X1025000Y-2637180D02*
X812180Y-2850000D01*
X750500D01*
G01X2264000Y-2589000D02*
X2400000Y-2725000D01*
G01X2800000D02*
Y-2625000D01*
X2950000Y-2475000D01*
G01X3876500Y-4199500D02*
Y-4300000D01*
G01X3975500Y-3700500D02*
X3907800D01*
X3876500Y-3731800D01*
Y-3799500D01*
G01X4375000Y-4150000D02*
X4302900Y-4077900D01*
X4231610D01*
X4224800Y-4074500D01*
X4199000D01*
G01X4125000Y-3799500D02*
Y-3725000D01*
X4175000Y-3675000D01*
G01X4125000Y-3799500D02*
Y-3800000D01*
G01X4126500Y-3799500D02*
X4125000D01*
G54D25*
X4126500Y-4199500D03*
X4076500D03*
X4026500D03*
X3976500D03*
X3926500D03*
X3876500Y-3799500D03*
X3926500D03*
X3976500D03*
X4026500D03*
X4076500D03*
X4126500D03*
X3876500Y-4199500D03*
G54D16*
X750500Y-3215000D03*
Y-3295000D03*
Y-2735000D03*
Y-2655000D03*
G54D35*
G01X318500Y-7682500D02*
X325000Y-7700000D01*
X75000Y-7450000D01*
Y-2300000D01*
X250000Y-2125000D01*
X2050000D01*
G01X500000Y-5077000D02*
Y-5075000D01*
X975000D01*
X2264000Y-3786000D01*
Y-3536000D01*
G01X500000Y-4823000D02*
Y-4825000D01*
X775000D01*
X1800000Y-3800000D01*
Y-3125000D01*
G01X1487500Y-2012500D02*
X1395320D01*
X1394820Y-2012000D01*
X479500D01*
G01X257000Y-1504000D02*
X100000Y-1661000D01*
Y-1975000D01*
X150000Y-2025000D01*
X288500D01*
G01X275000Y-875000D02*
Y-1025000D01*
X300000Y-1050000D01*
X600000D01*
X725000Y-1175000D01*
Y-1425000D01*
X646000Y-1504000D01*
X511000D01*
G01X470500Y-875000D02*
X1025000D01*
X2400000Y-2250000D01*
G01X1575000Y-2675000D02*
X1825000Y-2925000D01*
G01X1725000Y-2950000D02*
X1800000Y-3025000D01*
G01X1648000Y-250000D02*
X1650000Y-275000D01*
Y-1225000D01*
X2500000Y-2075000D01*
G01X1394000Y-250000D02*
X1387500Y-287500D01*
Y-1087500D01*
X2425000Y-2125000D01*
G01X5239500Y-5025000D02*
X4975000D01*
X4675000Y-4725000D01*
X2700000D01*
X2475000Y-4500000D01*
Y-3574990D01*
G01X1902000Y-250000D02*
X1900000Y-275000D01*
Y-1350000D01*
X2575000Y-2025000D01*
G01X2156000Y-250000D02*
X2164000Y-286000D01*
Y-1486000D01*
X2664000Y-1986000D01*
G01X3725000Y-4475000D02*
X3550000D01*
X3375000Y-4300000D01*
Y-3746250D01*
X2950000Y-3321250D01*
G01X3475000Y-3975000D02*
Y-3275000D01*
G01X3890000Y-2650000D02*
X3885360Y-2660360D01*
Y-2764640D01*
X3850000Y-2800000D01*
X3550000D01*
X3375000Y-2975000D01*
X3125000D01*
G01X3900000Y-2325000D02*
Y-2450000D01*
X3850000Y-2500000D01*
X3575000D01*
X3450000Y-2625000D01*
Y-2800000D01*
G01X3900000Y-3300000D02*
Y-3220720D01*
X3839640Y-3160360D01*
X3485360D01*
X3450000Y-3125000D01*
G01X3890000Y-2950000D02*
X3875000D01*
Y-3025000D01*
X3825000Y-3075000D01*
X3525000D01*
G01X3150000Y-4850000D02*
Y-5075000D01*
X3279000Y-5204000D01*
X3690500D01*
G01X5425000Y-6982000D02*
Y-6997000D01*
X5272000Y-7150000D01*
G01X3725000Y-4475000D02*
X3575000Y-4325000D01*
Y-4125000D01*
X3625000Y-4075000D01*
G01X3150000Y-4575000D02*
Y-3700000D01*
G01X3885360Y-5204000D02*
Y-5085360D01*
X3850000Y-5050000D01*
X3761000D01*
X3711000Y-5000000D01*
Y-4950000D01*
G01X3675000Y-4175000D02*
Y-4275000D01*
X3800000Y-4400000D01*
X4675000D01*
X4950000Y-4675000D01*
X5275000D01*
X5325000Y-4725000D01*
Y-4916500D01*
X5239500Y-5002000D01*
G01X5425000Y-5304000D02*
X5521000D01*
X5650000Y-5175000D01*
Y-4200000D01*
X5500000Y-4050000D01*
X5025000D01*
X4550000Y-3575000D01*
X3888680D01*
X3700000Y-3763680D01*
Y-3875000D01*
G01X4389500Y-5204000D02*
X4400000Y-5200000D01*
X4385360Y-5185360D01*
Y-5085360D01*
X4350000Y-5050000D01*
X4250000D01*
X4219000Y-5019000D01*
Y-4950000D01*
G01X3881500Y-5204000D02*
X3900000Y-5225000D01*
G01X3885360Y-5214640D02*
Y-5204000D01*
G01X3881500D02*
X3885360D01*
G01X5229500Y-4800000D02*
X4975000D01*
X4650000Y-4475000D01*
X3725000D01*
G01X5229500Y-4550000D02*
X5000000D01*
X4487700Y-4037700D01*
G01X5245000Y-4292000D02*
X4892000D01*
X4600000Y-4000000D01*
G01X5425000Y-4292000D02*
Y-4196800D01*
X5403200Y-4175000D01*
X4975000D01*
X4725000Y-3925000D01*
G01X3890000Y-3300000D02*
X3900000D01*
G01X4350000Y-3350000D02*
Y-3375000D01*
X4075000D01*
X4000000Y-3300000D01*
X3900000D01*
G01X4350000Y-2900000D02*
X4075000D01*
X4025000Y-2950000D01*
X3890000D01*
G01X5050000Y-7700000D02*
Y-7375000D01*
G01X5107000Y-6982000D02*
Y-6743000D01*
G01X5239500Y-6474000D02*
X5239640Y-6464640D01*
Y-6360360D01*
X5275000Y-6325000D01*
X5375000D01*
X5410000Y-6290000D01*
Y-6220000D01*
G01X5103000Y-6728000D02*
X5107000Y-6743000D01*
G01D02*
X5125000Y-6725000D01*
G01X5075000Y-6225000D02*
Y-5937000D01*
G01Y-5683000D02*
Y-5675000D01*
G01Y-5937000D02*
Y-5683000D01*
G01X5239500Y-5025000D02*
X5250000D01*
G01Y-3550000D02*
Y-3775000D01*
G54D26*
X4001500Y-3999500D03*
G54D17*
X643000Y-3264000D03*
Y-2686000D03*
G54D36*
G01X5415000Y-7700000D02*
X5425000Y-7725000D01*
G01X975000Y-3550000D02*
X1179500D01*
G01X275000Y-1250000D02*
X257000D01*
G01X1050000Y-3400000D02*
X975000D01*
X925000Y-3350000D01*
G01X1050000Y-3400000D02*
X1370500D01*
G01X850000Y-3150000D02*
X925000Y-3225000D01*
X1179500D01*
G01X1196000Y-2950000D02*
X1025000D01*
G01X1196000D02*
X1200000D01*
Y-2990000D01*
X1140000Y-3050000D01*
X900000D01*
G01Y-2500000D02*
Y-2625000D01*
G01D02*
X880700D01*
X850700Y-2655000D01*
X750500D01*
G01X1204500Y-2675000D02*
X1200000Y-2700000D01*
X1075000D01*
X950000Y-2825000D01*
G01X1204500Y-2425000D02*
X1100000D01*
X1025000Y-2500000D01*
Y-2637180D01*
G01X1370500Y-3550000D02*
X1425000D01*
X1575000Y-3400000D01*
Y-3175000D01*
X1350000Y-2950000D01*
X1354000D01*
G01X1370500Y-3225000D02*
Y-3400000D01*
G01X1395500Y-2675000D02*
X1575000D01*
G01X1354000Y-2950000D02*
X1725000D01*
G01X1395500Y-2425000D02*
X1575000D01*
G01X2350000Y-3175000D02*
X2800000Y-2725000D01*
G01X2400000D02*
X2800000D01*
G01X2950000Y-2475000D02*
Y-2000000D01*
G01X2959000Y-1968000D02*
X2975000Y-1975000D01*
X2950000Y-2000000D01*
G01X2959000Y-1966000D02*
Y-1968000D01*
G01Y-1664000D02*
Y-1966000D01*
G01X2950000Y-2000000D02*
Y-1975000D01*
X2959000Y-1966000D01*
G01Y-1031000D02*
Y-1360000D01*
G01D02*
Y-1664000D01*
G01X3710000Y-3300000D02*
X3600000D01*
G01X3710000Y-2950000D02*
X3575000D01*
G01X3710000Y-2650000D02*
X3575000D01*
G01X3710000Y-2325000D02*
X3575000D01*
G01X3139000Y-1968000D02*
Y-1825000D01*
G01Y-1664000D02*
Y-1525000D01*
G01Y-1360000D02*
Y-1200000D01*
G01Y-1031000D02*
Y-875000D01*
G01X4375000Y-4950000D02*
X4275000Y-4850000D01*
X3961000D01*
X3861000Y-4950000D01*
G01X4175000Y-3675000D02*
X4375000D01*
X4500000Y-3800000D01*
G01X4600000Y-2650000D02*
X4350000D01*
X4295500Y-2595500D01*
X4175000D01*
G01Y-2600000D02*
X4000000D01*
X3950000Y-2650000D01*
X3890000D01*
G01X4200000Y-2600000D02*
X4175000D01*
G01Y-2595500D02*
Y-2600000D01*
G01X3890000Y-2325000D02*
X3900000D01*
G01X4175000Y-2400000D02*
Y-2404500D01*
G01Y-2400000D02*
X4025000D01*
X3950000Y-2325000D01*
X3900000D01*
G01X4600000Y-2210000D02*
Y-2225000D01*
X4265800D01*
X4175000Y-2315800D01*
Y-2400000D01*
G01X5430500Y-5025000D02*
X5425000Y-5050000D01*
X5325000Y-5150000D01*
X5050000D01*
X4975000Y-5225000D01*
G01X4625000Y-2650000D02*
X4600000D01*
G01Y-2640000D02*
Y-2650000D01*
G01X5425000Y-6982000D02*
Y-6975000D01*
G01D02*
Y-6728000D01*
G01X5430500Y-6474000D02*
X5425000Y-6500000D01*
Y-6728000D01*
G01X5430500Y-6474000D02*
X5519200D01*
X5600000Y-6393200D01*
Y-6350000D01*
G01Y-6011800D02*
X5525200Y-5937000D01*
X5425000D01*
G01X5430500Y-5025000D02*
X5420500Y-5020500D01*
Y-4800000D01*
G01X5425000Y-3534000D02*
X5609000D01*
G01X7621000Y-3301000D02*
Y-3304000D01*
G01Y-3301000D02*
X7600000Y-3325000D01*
X7625000Y-3350000D01*
G54D27*
X4350000D03*
Y-2900000D03*
X4900000Y-3350000D03*
Y-2900000D03*
G54D18*
X1196000Y-2950000D03*
X1354000D03*
G54D37*
G01X500000Y-5331000D02*
X706000D01*
G01X2325000Y-75000D02*
Y-1500000D01*
X2814000Y-1989000D01*
G01X3600000Y-1550000D02*
X3525000Y-1625000D01*
Y-2150000D01*
X3375000Y-2300000D01*
G01X6800000Y-325000D02*
X5725000Y-1400000D01*
X3575000D01*
X3425000Y-1550000D01*
Y-2100000D01*
X3275000Y-2250000D01*
Y-2575000D01*
G01X3587500Y-237500D02*
X3500000Y-325000D01*
Y-1300000D01*
X3325000Y-1475000D01*
Y-2050000D01*
X3200000Y-2175000D01*
G01X4198500Y-5204000D02*
Y-5181000D01*
X4075000Y-5057500D01*
Y-5000000D01*
G01X4375000Y-4950000D02*
X4700000D01*
G01X4369000D02*
X4375000D01*
G54D28*
X4175000Y-2595500D03*
Y-2404500D03*
G54D19*
X750500Y-2800000D03*
Y-2900000D03*
Y-3050000D03*
Y-3150000D03*
Y-3100000D03*
Y-3000000D03*
Y-2950000D03*
Y-2850000D03*
G54D38*
G01X2264000Y-3536000D02*
Y-3318000D01*
G01X1800000Y-3125000D02*
X1850000Y-3075000D01*
X2121000D01*
G01X300000Y-2025000D02*
X288500D01*
G01Y-2012000D02*
Y-2025000D01*
G01X279500Y-875000D02*
X275000D01*
G01X2400000Y-2250000D02*
X2464000Y-2314000D01*
Y-2482000D01*
G01X1825000Y-2925000D02*
X1875000Y-2975000D01*
X2121000D01*
G01X1800000Y-3025000D02*
X2121000D01*
G01X2500000Y-2075000D02*
X2564000Y-2139000D01*
Y-2482000D01*
G01X2425000Y-2125000D02*
X2514000Y-2214000D01*
Y-2482000D01*
G01X2475000Y-3574990D02*
X2564000Y-3485990D01*
Y-3318000D01*
G01X2121000Y-3175000D02*
X2350000D01*
G01X2121000Y-2975000D02*
X2125000D01*
G01X2121000Y-2625000D02*
X2200000D01*
X2425000Y-2850000D01*
G01X2121000Y-3125000D02*
X2225000D01*
X2325000Y-3025000D01*
G01X2264000Y-2482000D02*
Y-2589000D01*
G01X2575000Y-2025000D02*
X2614000Y-2064000D01*
Y-2482000D01*
G01X2314000D02*
Y-2339000D01*
X2275000Y-2300000D01*
G01X2664000Y-1986000D02*
Y-2482000D01*
G01X2814000Y-1989000D02*
Y-2482000D01*
G01Y-3318000D02*
Y-3464000D01*
X2825000Y-3475000D01*
G01X2950000Y-3321250D02*
X2703750Y-3075000D01*
X2575000D01*
X2514000Y-3136000D01*
Y-3318000D01*
G01X2614000D02*
Y-3636000D01*
X2600000Y-3650000D01*
G01Y-3175000D02*
X2724180D01*
X2764000Y-3214820D01*
Y-3318000D01*
G01X3375000Y-2300000D02*
Y-2800000D01*
X3300000Y-2875000D01*
X2957000D01*
G01X3475000Y-3275000D02*
X3325000Y-3125000D01*
X2957000D01*
G01Y-2825000D02*
X3200000D01*
X3275000Y-2750000D01*
G01X2957000Y-2975000D02*
X2950000D01*
G01X3125000D02*
X2957000D01*
G01X3450000Y-2800000D02*
Y-2824800D01*
X3350000Y-2924800D01*
X3104200D01*
X3104000Y-2925000D01*
X2957000D01*
G01X3450000Y-3125000D02*
X3400000Y-3075000D01*
X2957000D01*
G01X3525000D02*
X3475200Y-3025200D01*
X3104200D01*
X3104000Y-3025000D01*
X2957000D01*
G01Y-2775000D02*
X2850000D01*
X2800000Y-2725000D01*
G01X3275000Y-2575000D02*
X3125000Y-2725000D01*
X2957000D01*
G01Y-2675000D02*
X2950000D01*
G01X3200000Y-2175000D02*
Y-2575000D01*
X3100000Y-2675000D01*
X2957000D01*
G01X3050000Y-2250000D02*
Y-2596010D01*
X3021010Y-2625000D01*
X2957000D01*
G01X3625000Y-4075000D02*
X3800000D01*
X3804000Y-4074500D01*
G01Y-4124500D02*
X3725500D01*
X3675000Y-4175000D01*
G01X5239500Y-5002000D02*
Y-5025000D01*
G01X3700000Y-3875000D02*
X3749500Y-3924500D01*
X3804000D01*
G01X4487700Y-4037700D02*
X4279900D01*
X4266700Y-4024500D01*
X4199000D01*
G01X4600000Y-4000000D02*
X4574500Y-3974500D01*
X4199000D01*
G01X4725000Y-3925000D02*
X4267200D01*
X4266700Y-3924500D01*
X4199000D01*
G01X5250000Y-3775000D02*
X5239500Y-3785500D01*
Y-3788000D01*
G01X5250000Y-3550000D02*
X5245000Y-3534000D01*
G01X5225000Y-3525000D02*
X5250000Y-3550000D01*
G54D29*
X4600000Y-2640000D03*
Y-2210000D03*
G54D39*
G01X5425000Y-7725000D02*
X5250000Y-7900000D01*
G01X5415000Y-7700000D02*
Y-7375000D01*
G01X5400000Y-7700000D02*
X5415000D01*
G01X6025000D02*
X5415000D01*
G01X6500000Y-6984500D02*
Y-7150000D01*
G01X6729000Y-6984500D02*
Y-7196000D01*
G01X7900000Y-2125000D02*
Y-3925000D01*
X7350000Y-4475000D01*
Y-6550000D01*
X7684500Y-6884500D01*
Y-7682500D01*
M02*
